<svg width="18" height="18" viewBox="0 0 18 18" fill="none" xmlns="http://www.w3.org/2000/svg">
<path d="M13.0454 10.8889L13.0387 10.9492C11.409 10.0689 11.2385 9.95164 11.0281 10.2938C10.8821 10.5307 10.4567 11.068 10.3285 11.2271C10.1988 11.3837 10.0698 11.3957 9.84971 11.2873C9.62738 11.1668 8.9137 10.9138 8.06884 10.0946C7.41074 9.45608 6.96904 8.67299 6.83861 8.43203C6.62147 8.02563 7.07576 7.9678 7.4893 7.11965C7.56341 6.95098 7.52561 6.81846 7.47077 6.69879C7.41519 6.57831 6.97275 5.39765 6.78747 4.92699C6.60961 4.45794 6.42656 4.51737 6.28945 4.51737C5.86258 4.47721 5.55057 4.48364 5.27562 4.79366C4.07948 6.21849 4.38111 7.6883 5.40457 9.25127C7.41593 12.1041 8.48757 12.6294 10.447 13.3587C10.9762 13.541 11.4587 13.5153 11.8403 13.4559C12.2657 13.3828 13.1498 12.8768 13.3344 12.3106C13.5234 11.7443 13.5234 11.2745 13.4678 11.166C13.4129 11.0576 13.2677 10.9974 13.0454 10.8889Z" fill="#404D58"/>
<path d="M15.39 2.58703C9.62325 -2.98762 0.0795 1.05555 0.07575 8.91991C0.07575 10.4919 0.4875 12.0249 1.272 13.3786L0 18L4.75125 16.761C10.68 19.9635 17.997 15.711 18 8.92441C18 6.54246 17.07 4.30075 15.3787 2.61628L15.39 2.58703ZM16.5015 8.89966C16.497 14.6243 10.2127 18.1995 5.2425 15.2775L4.9725 15.1171L2.16 15.8483L2.91375 13.1146L2.7345 12.8333C-0.3585 7.90968 3.195 1.4748 9.054 1.4748C11.0445 1.4748 12.9128 2.25103 14.3198 3.65726C15.726 5.05148 16.5015 6.9197 16.5015 8.89966V8.89966Z" fill="#404D58"/>
</svg>
