<?xml version="1.0" encoding="UTF-8"?> <svg xmlns="http://www.w3.org/2000/svg" xmlns:xlink="http://www.w3.org/1999/xlink" version="1.1" width="56px" height="56px" style="shape-rendering:geometricPrecision; text-rendering:geometricPrecision; image-rendering:optimizeQuality; fill-rule:evenodd; clip-rule:evenodd"><g><path style="opacity:0.982" fill="#02c8fd" d="M 7.5,5.5 C 15.1667,12.5 22.5,19.8333 29.5,27.5C 28.1667,29.5 26.5,31.1667 24.5,32.5C 19.11,26.1078 13.11,20.4412 6.5,15.5C 6.18723,11.9581 6.52056,8.62482 7.5,5.5 Z"></path></g><g><path style="opacity:1" fill="#0ded79" d="M 7.5,5.5 C 8.94639,4.38705 10.6131,4.22039 12.5,5C 20.8608,9.84502 29.1941,14.6784 37.5,19.5C 35.1667,22.1667 32.8333,24.8333 30.5,27.5C 30.1667,27.5 29.8333,27.5 29.5,27.5C 22.5,19.8333 15.1667,12.5 7.5,5.5 Z"></path></g><g><path style="opacity:0.981" fill="#02d4fe" d="M 6.5,15.5 C 13.11,20.4412 19.11,26.1078 24.5,32.5C 22.8333,34.8333 20.8333,36.8333 18.5,38.5C 14.8333,34.1667 10.8333,30.1667 6.5,26.5C 6.5,22.8333 6.5,19.1667 6.5,15.5 Z"></path></g><g><path style="opacity:0.994" fill="#fccf0a" d="M 37.5,19.5 C 52.1667,24.8333 52.1667,30.1667 37.5,35.5C 35.1667,32.8333 32.8333,30.1667 30.5,27.5C 32.8333,24.8333 35.1667,22.1667 37.5,19.5 Z"></path></g><g><path style="opacity:0.968" fill="#03ddfd" d="M 6.5,26.5 C 10.8333,30.1667 14.8333,34.1667 18.5,38.5C 15.1667,42.5 11.5,46.1667 7.5,49.5C 6.50797,42.0182 6.17464,34.3516 6.5,26.5 Z"></path></g><g><path style="opacity:1" fill="#ec334a" d="M 29.5,27.5 C 29.8333,27.5 30.1667,27.5 30.5,27.5C 32.8333,30.1667 35.1667,32.8333 37.5,35.5C 29.2295,40.3066 20.8962,45.1399 12.5,50C 10.6131,50.7796 8.94639,50.6129 7.5,49.5C 11.5,46.1667 15.1667,42.5 18.5,38.5C 20.8333,36.8333 22.8333,34.8333 24.5,32.5C 26.5,31.1667 28.1667,29.5 29.5,27.5 Z"></path></g></svg> 