<?xml version="1.0" encoding="UTF-8"?> <svg xmlns="http://www.w3.org/2000/svg" width="28" height="28" viewBox="0 0 28 28" fill="none"><g id="apple.2 1"><path id="Vector" fill-rule="evenodd" clip-rule="evenodd" d="M13.7201 7.80484C13.6339 7.81656 13.5461 7.80958 13.4628 7.78439C13.3795 7.75919 13.3026 7.71637 13.2373 7.65882C13.172 7.60127 13.1198 7.53035 13.0844 7.45087C13.0489 7.37138 13.031 7.2852 13.0318 7.19817C13.0768 6.08282 13.4867 5.01308 14.1984 4.15317C14.9476 3.26301 15.9544 2.62712 17.0801 2.33317C17.169 2.31161 17.2617 2.31084 17.3509 2.33092C17.4402 2.351 17.5236 2.39139 17.5947 2.44895C17.6658 2.50651 17.7227 2.57969 17.7609 2.6628C17.7991 2.74591 17.8177 2.83672 17.8151 2.92817C17.7516 4.04672 17.3442 5.11837 16.6484 5.9965C15.9328 6.94427 14.888 7.58947 13.7201 7.80484ZM20.0434 14.5948C20.0434 11.4215 22.3768 10.7098 22.3768 10.0215C22.3768 9.33317 20.3584 7.79317 18.2234 7.79317C16.0884 7.79317 15.2601 8.7965 13.8134 8.7965C12.3668 8.7965 11.1884 7.79317 9.39176 7.79317C8.40235 7.84772 7.4417 8.14567 6.59506 8.66057C5.74843 9.17547 5.04199 9.8914 4.53843 10.7448C3.81329 11.9975 3.45359 13.4282 3.5001 14.8748C3.5001 19.9965 7.1751 25.6665 9.88176 25.6665C11.3984 25.6665 11.7834 24.6748 13.8718 24.6748C15.9601 24.6748 16.3334 25.6665 17.7568 25.6665C20.6968 25.6665 23.1468 19.8332 23.1468 19.7515C23.1457 19.638 23.1122 19.5271 23.0502 19.432C22.9881 19.3369 22.9002 19.2616 22.7968 19.2148C21.9589 18.7706 21.259 18.1048 20.7735 17.2902C20.288 16.4755 20.0355 15.5432 20.0434 14.5948Z" fill="#10212E"></path></g></svg> 