<svg xmlns="http://www.w3.org/2000/svg" viewBox="0 0 3065.16 3061.6">
    <defs>
        <style>
            .cls-1 {
                fill: #191919;
            }
        </style>
    </defs>
    <g id="Layer_2" data-name="Layer 2">
        <path class="cls-1"
            d="M1244,1796.83c0-4.57,0-8.54,0-12.5-.08-67.68,0-135.36-.39-203a153.05,153.05,0,0,0-3.5-31c-8.6-40-29.28-58.38-70-61.66-14.38-1.17-28.93-.1-43.38-.56-8.26-.26-10.86,2.8-10.78,11.16.41,40.06.18,80.13.18,120.2v178H1104.8c-46.81.06-93.61,0-140.42.21-36.82.15-72.45-6.33-105.92-21.52-62.55-28.38-94.73-79.82-107.86-145.31-11.55-57.55-8.94-115.09-.91-172.7.74-5.33,2.38-10.66,2.24-16-.29-10.55,5-14.2,14.72-16,28.32-5.29,56.46-11.51,85.37-17.51-3.38,18-7.41,34.94-9.61,52.07-6.64,51.64-9.08,103.33,4.79,154.29,11.31,41.55,37.44,69.34,78.22,84.32,27.13,10,54.54,13.31,84.56,10.39v-12.67c0-90.57.13-181.15-.2-271.72,0-9.21,2.67-12.3,11.82-14.13,49.37-9.87,99.15-14.67,149.43-13.28,29.39.81,58.36,5.64,85.71,16.65,53.37,21.49,81.65,62.77,89.44,118.61a535.47,535.47,0,0,1,4.57,62.27c.74,33.66.2,67.34.2,101,0,14,0,14.22,14.34,14.23,51.85,0,103.71-.14,155.56-.23,12.65,0,25.3,0,36.67,0-5.38-21.6-12.68-42.37-15.49-63.73-8.72-66.21,1.93-128.4,46.23-181,34.23-40.66,79.73-61,131.93-65.86,57.67-5.37,114.86,1.25,171.89,9.63,8,1.18,6.66,6,6.66,10.74,0,42.76-.13,85.52-.15,128.28q0,103.55,0,207.07v41.24Zm548.88-197.25h.29c0-33.67-.23-67.35.17-101,.09-7.24-2.09-10.49-9.21-11.08-13.05-1.06-26.05-3.18-39.11-3.57-36.81-1.11-64.72,14.75-81.34,47.48-21.14,41.63-19.61,84.57-1.63,126.75,15.23,35.74,44.34,51.69,82.35,52.6,12.78.31,25.61-.48,38.38.11,8,.38,10.37-2.25,10.28-10.25C1792.68,1666.93,1792.91,1633.26,1792.91,1599.58Z" />
        <path class="cls-1"
            d="M2322.37,1410.23v372.61c0,113.48-64.28,192.71-175.46,216.7-51,11-102.23,9.47-153.58,3.2-10.3-1.26-20.61-2.43-31.75-3.73q-2.79-47.19-5.51-93.09c25.46,3.47,49.62,7.87,74,9.83,35.9,2.88,72,4.42,107.05-6.91,47.34-15.29,80.51-62.09,77.65-111.4-4,0-8.24,0-12.42,0-36-.13-71.9,1.24-107.39-7.52-77.87-19.23-120.54-66.71-130.11-146.28-6.3-52.43-.15-103,26.36-149.3,32.86-57.35,84.59-87.24,149.18-94.39C2201,1393.24,2261.2,1401.19,2322.37,1410.23Zm-107,189.37c0-34-.2-68,.17-102,.08-6.82-2.31-10-8.67-10.6-15-1.45-30.14-4.4-45.12-3.88-32.92,1.15-58.88,15.82-74.67,45.39-20.94,39.24-20.1,80.11-6.06,121.11,12.19,35.57,38.19,55.54,75,60.24,16.24,2.08,32.94.26,49.39,1,8.24.38,10.21-2.56,10.12-10.34C2215.17,1666.91,2215.38,1633.25,2215.38,1599.6Z" />
        <path class="cls-1"
            d="M1405.77,1121.33c18.31-4.8,36.44-9.56,54.6-14.25,1.24-.32,2.65,0,5.21,0,0,11-.09,22,0,33,.12,12.24,4.39,17.19,14.64,17.3,10,.11,15.2-5.07,15.63-16.81.43-12.11-.18-24.26.39-36.35.13-2.72,2.76-6.89,5.13-7.67,17.18-5.64,34.58-10.59,53.16-16.13,0,16.58,0,32.25,0,47.91,0,12.9,4.34,18.34,14.57,18.68,11,.37,17.53-6,17.76-18.55.33-18.82.08-37.64.08-57.09l58.55-17.33c0,12.14.16,23.38,0,34.62-.33,19.16,1.24,38.65-1.72,57.41-9.43,59.57-65.48,80.25-112.59,41.82-10.46,14.47-23,27.54-41.69,28.37-13.38.6-27.87-.74-40.25-5.45C1417.06,1198.47,1403.52,1169.17,1405.77,1121.33Z" />
        <path class="cls-1"
            d="M1820.75,1335.37c-34.06.2-61.38-26.46-61.52-60-.15-32.95,27.79-61.15,60.85-61.41,33.23-.27,60.05,26.36,60.39,60C1880.83,1308.22,1854.64,1335.18,1820.75,1335.37Z" />
        <path class="cls-1"
            d="M1083.67,1919.91c.11,34.18-25.52,61.32-57.78,61.18s-58.52-27.64-58.26-61c.27-33.91,25.22-59.46,58.14-59.53C1059.08,1860.43,1083.55,1885.54,1083.67,1919.91Z" />
        <path class="cls-1"
            d="M946.31,1920.11c0,33.89-24.94,60.66-56.9,61-33,.32-59.14-26.83-58.88-61.24.27-34.17,24.9-59.31,58.14-59.34S946.28,1885.67,946.31,1920.11Z" />
    </g>
</svg>